<svg width="1200" height="630" viewBox="0 0 1200 630" xmlns="http://www.w3.org/2000/svg">
  <!-- Background gradient -->
  <defs>
    <linearGradient id="bg" x1="0%" y1="0%" x2="100%" y2="100%">
      <stop offset="0%" style="stop-color:#1a1a2e;stop-opacity:1" />
      <stop offset="100%" style="stop-color:#16213e;stop-opacity:1" />
    </linearGradient>
    <linearGradient id="titleGrad" x1="0%" y1="0%" x2="100%" y2="0%">
      <stop offset="0%" style="stop-color:#00d4ff;stop-opacity:1" />
      <stop offset="100%" style="stop-color:#0f9;stop-opacity:1" />
    </linearGradient>
  </defs>

  <!-- Background -->
  <rect width="1200" height="630" fill="url(#bg)"/>

  <!-- Grid of contribution blocks (like GitHub contribution graph) -->
  <!-- Row 1 -->
  <rect x="300" y="180" width="35" height="35" rx="4" fill="#0e4429" opacity="0.8"/>
  <rect x="345" y="180" width="35" height="35" rx="4" fill="#006d32" opacity="0.8"/>
  <rect x="390" y="180" width="35" height="35" rx="4" fill="#26a641" opacity="0.8"/>
  <rect x="435" y="180" width="35" height="35" rx="4" fill="#39d353" opacity="0.8"/>
  <rect x="480" y="180" width="35" height="35" rx="4" fill="#0e4429" opacity="0.8"/>
  <rect x="525" y="180" width="35" height="35" rx="4" fill="#006d32" opacity="0.8"/>
  <rect x="570" y="180" width="35" height="35" rx="4" fill="#26a641" opacity="0.8"/>
  <rect x="615" y="180" width="35" height="35" rx="4" fill="#0e4429" opacity="0.8"/>
  <rect x="660" y="180" width="35" height="35" rx="4" fill="#006d32" opacity="0.8"/>
  <rect x="705" y="180" width="35" height="35" rx="4" fill="#39d353" opacity="0.8"/>
  <rect x="750" y="180" width="35" height="35" rx="4" fill="#26a641" opacity="0.8"/>
  <rect x="795" y="180" width="35" height="35" rx="4" fill="#0e4429" opacity="0.8"/>
  <rect x="840" y="180" width="35" height="35" rx="4" fill="#006d32" opacity="0.8"/>
  <rect x="885" y="180" width="35" height="35" rx="4" fill="#39d353" opacity="0.8"/>

  <!-- Row 2 -->
  <rect x="300" y="225" width="35" height="35" rx="4" fill="#006d32" opacity="0.8"/>
  <rect x="345" y="225" width="35" height="35" rx="4" fill="#39d353" opacity="0.8"/>
  <rect x="390" y="225" width="35" height="35" rx="4" fill="#0e4429" opacity="0.8"/>
  <rect x="435" y="225" width="35" height="35" rx="4" fill="#26a641" opacity="0.8"/>
  <rect x="480" y="225" width="35" height="35" rx="4" fill="#39d353" opacity="0.8"/>
  <rect x="525" y="225" width="35" height="35" rx="4" fill="#0e4429" opacity="0.8"/>
  <rect x="570" y="225" width="35" height="35" rx="4" fill="#006d32" opacity="0.8"/>
  <rect x="615" y="225" width="35" height="35" rx="4" fill="#39d353" opacity="0.8"/>
  <rect x="660" y="225" width="35" height="35" rx="4" fill="#26a641" opacity="0.8"/>
  <rect x="705" y="225" width="35" height="35" rx="4" fill="#0e4429" opacity="0.8"/>
  <rect x="750" y="225" width="35" height="35" rx="4" fill="#006d32" opacity="0.8"/>
  <rect x="795" y="225" width="35" height="35" rx="4" fill="#39d353" opacity="0.8"/>
  <rect x="840" y="225" width="35" height="35" rx="4" fill="#26a641" opacity="0.8"/>
  <rect x="885" y="225" width="35" height="35" rx="4" fill="#0e4429" opacity="0.8"/>

  <!-- Row 3 -->
  <rect x="300" y="270" width="35" height="35" rx="4" fill="#26a641" opacity="0.8"/>
  <rect x="345" y="270" width="35" height="35" rx="4" fill="#0e4429" opacity="0.8"/>
  <rect x="390" y="270" width="35" height="35" rx="4" fill="#39d353" opacity="0.8"/>
  <rect x="435" y="270" width="35" height="35" rx="4" fill="#006d32" opacity="0.8"/>
  <rect x="480" y="270" width="35" height="35" rx="4" fill="#26a641" opacity="0.8"/>
  <rect x="525" y="270" width="35" height="35" rx="4" fill="#39d353" opacity="0.8"/>
  <rect x="570" y="270" width="35" height="35" rx="4" fill="#0e4429" opacity="0.8"/>
  <rect x="615" y="270" width="35" height="35" rx="4" fill="#006d32" opacity="0.8"/>
  <rect x="660" y="270" width="35" height="35" rx="4" fill="#39d353" opacity="0.8"/>
  <rect x="705" y="270" width="35" height="35" rx="4" fill="#26a641" opacity="0.8"/>
  <rect x="750" y="270" width="35" height="35" rx="4" fill="#0e4429" opacity="0.8"/>
  <rect x="795" y="270" width="35" height="35" rx="4" fill="#006d32" opacity="0.8"/>
  <rect x="840" y="270" width="35" height="35" rx="4" fill="#39d353" opacity="0.8"/>
  <rect x="885" y="270" width="35" height="35" rx="4" fill="#26a641" opacity="0.8"/>

  <!-- Row 4 -->
  <rect x="300" y="315" width="35" height="35" rx="4" fill="#39d353" opacity="0.8"/>
  <rect x="345" y="315" width="35" height="35" rx="4" fill="#26a641" opacity="0.8"/>
  <rect x="390" y="315" width="35" height="35" rx="4" fill="#006d32" opacity="0.8"/>
  <rect x="435" y="315" width="35" height="35" rx="4" fill="#39d353" opacity="0.8"/>
  <rect x="480" y="315" width="35" height="35" rx="4" fill="#0e4429" opacity="0.8"/>
  <rect x="525" y="315" width="35" height="35" rx="4" fill="#26a641" opacity="0.8"/>
  <rect x="570" y="315" width="35" height="35" rx="4" fill="#39d353" opacity="0.8"/>
  <rect x="615" y="315" width="35" height="35" rx="4" fill="#006d32" opacity="0.8"/>
  <rect x="660" y="315" width="35" height="35" rx="4" fill="#0e4429" opacity="0.8"/>
  <rect x="705" y="315" width="35" height="35" rx="4" fill="#39d353" opacity="0.8"/>
  <rect x="750" y="315" width="35" height="35" rx="4" fill="#26a641" opacity="0.8"/>
  <rect x="795" y="315" width="35" height="35" rx="4" fill="#006d32" opacity="0.8"/>
  <rect x="840" y="315" width="35" height="35" rx="4" fill="#0e4429" opacity="0.8"/>
  <rect x="885" y="315" width="35" height="35" rx="4" fill="#39d353" opacity="0.8"/>

  <!-- Paddle -->
  <rect x="520" y="430" width="160" height="20" rx="10" fill="#00d4ff"/>

  <!-- Ball -->
  <circle cx="600" cy="400" r="12" fill="#fff"/>

  <!-- Title -->
  <text x="600" y="110" font-family="Arial, sans-serif" font-size="72" font-weight="bold" fill="url(#titleGrad)" text-anchor="middle">
    Commit Breaker
  </text>

  <!-- Subtitle -->
  <text x="600" y="520" font-family="Arial, sans-serif" font-size="28" fill="#a0a0a0" text-anchor="middle">
    Turn your GitHub contributions into a game
  </text>
</svg>
