<svg width="1200" height="630" viewBox="0 0 1200 630" xmlns="http://www.w3.org/2000/svg">
  <defs>
    <!-- Background gradient matching glass morphism theme -->
    <linearGradient id="bg" x1="0%" y1="0%" x2="100%" y2="100%">
      <stop offset="0%" style="stop-color:#667eea;stop-opacity:1" />
      <stop offset="50%" style="stop-color:#764ba2;stop-opacity:1" />
      <stop offset="100%" style="stop-color:#f093fb;stop-opacity:1" />
    </linearGradient>
    <!-- Glass panel effect -->
    <filter id="glass" x="-50%" y="-50%" width="200%" height="200%">
      <feGaussianBlur in="SourceGraphic" stdDeviation="10" result="blur"/>
      <feColorMatrix in="blur" type="matrix" values="1 0 0 0 0  0 1 0 0 0  0 0 1 0 0  0 0 0 0.5 0"/>
    </filter>
    <linearGradient id="glassGrad" x1="0%" y1="0%" x2="0%" y2="100%">
      <stop offset="0%" style="stop-color:rgba(255,255,255,0.25);stop-opacity:1" />
      <stop offset="100%" style="stop-color:rgba(255,255,255,0.1);stop-opacity:1" />
    </linearGradient>
  </defs>

  <!-- Background -->
  <rect width="1200" height="630" fill="url(#bg)"/>

  <!-- Glass panel for content -->
  <rect x="200" y="100" width="800" height="430" rx="24" fill="rgba(255,255,255,0.15)" stroke="rgba(255,255,255,0.3)" stroke-width="1"/>

  <!-- Title -->
  <text x="600" y="180" font-family="Arial, sans-serif" font-size="56" font-weight="bold" fill="#ffffff" text-anchor="middle">
    Commit Breaker
  </text>

  <!-- Grid of contribution blocks (like GitHub contribution graph) -->
  <!-- Row 1 -->
  <rect x="330" y="230" width="40" height="40" rx="6" fill="#9be9a8" opacity="0.9"/>
  <rect x="380" y="230" width="40" height="40" rx="6" fill="#40c463" opacity="0.9"/>
  <rect x="430" y="230" width="40" height="40" rx="6" fill="#30a14e" opacity="0.9"/>
  <rect x="480" y="230" width="40" height="40" rx="6" fill="#216e39" opacity="0.9"/>
  <rect x="530" y="230" width="40" height="40" rx="6" fill="#9be9a8" opacity="0.9"/>
  <rect x="580" y="230" width="40" height="40" rx="6" fill="#40c463" opacity="0.9"/>
  <rect x="630" y="230" width="40" height="40" rx="6" fill="#30a14e" opacity="0.9"/>
  <rect x="680" y="230" width="40" height="40" rx="6" fill="#40c463" opacity="0.9"/>
  <rect x="730" y="230" width="40" height="40" rx="6" fill="#9be9a8" opacity="0.9"/>
  <rect x="780" y="230" width="40" height="40" rx="6" fill="#216e39" opacity="0.9"/>
  <rect x="830" y="230" width="40" height="40" rx="6" fill="#30a14e" opacity="0.9"/>

  <!-- Row 2 -->
  <rect x="330" y="280" width="40" height="40" rx="6" fill="#40c463" opacity="0.9"/>
  <rect x="380" y="280" width="40" height="40" rx="6" fill="#216e39" opacity="0.9"/>
  <rect x="430" y="280" width="40" height="40" rx="6" fill="#9be9a8" opacity="0.9"/>
  <rect x="480" y="280" width="40" height="40" rx="6" fill="#30a14e" opacity="0.9"/>
  <rect x="530" y="280" width="40" height="40" rx="6" fill="#40c463" opacity="0.9"/>
  <rect x="580" y="280" width="40" height="40" rx="6" fill="#216e39" opacity="0.9"/>
  <rect x="630" y="280" width="40" height="40" rx="6" fill="#9be9a8" opacity="0.9"/>
  <rect x="680" y="280" width="40" height="40" rx="6" fill="#30a14e" opacity="0.9"/>
  <rect x="730" y="280" width="40" height="40" rx="6" fill="#40c463" opacity="0.9"/>
  <rect x="780" y="280" width="40" height="40" rx="6" fill="#9be9a8" opacity="0.9"/>
  <rect x="830" y="280" width="40" height="40" rx="6" fill="#216e39" opacity="0.9"/>

  <!-- Ball -->
  <circle cx="600" cy="380" r="14" fill="#ffffff"/>

  <!-- Paddle with glass effect -->
  <rect x="500" y="430" width="200" height="24" rx="12" fill="rgba(255,255,255,0.3)" stroke="rgba(255,255,255,0.5)" stroke-width="1"/>

  <!-- Subtitle -->
  <text x="600" y="500" font-family="Arial, sans-serif" font-size="24" fill="rgba(255,255,255,0.8)" text-anchor="middle">
    Turn your GitHub contributions into a game
  </text>
</svg>
